<svg xmlns="http://www.w3.org/2000/svg" height="239.43" viewBox="0 0 250 239.4308" width="250"><g transform="matrix(1.25 0 0 -1.25 -258.03 614.97)"><path d="m133.17 0.70312c-0.06 0.14027-0.7 0.34948-0.75 0.49808-0.25 0.694 0.17 1.2474 0.25 1.7461-0.27 0.054-0.4 0.4585-0.5 0.498-0.9 0.3044-2.06-0.2337-2.99 0-0.5 0.1164-1.21 1.139-1.74 1.2481-1.16 0.2264-1.78-0.5312-2.75 0.248-0.47 0.3584-1.48 3.5307-1.74 4.2402-0.27-0.1475-0.47 0.1092-0.75 0-0.28-0.109-0.65-0.8577-1-0.998-2.28-0.9267-2.19 0.9513-3.24 1.7461-0.38 0.2803-1.04 0.2803-1.5 0.4983 0 0-0.18-0.7407-0.25-0.9983 0.3-0.2722 1.13-0.5754 1.25-0.9961 0.07-0.2805-0.12-0.7414 0-0.9981-0.22-0.1714-0.44-0.1479-0.5-0.498-0.46 0-1.05 0.1017-1.49 0-0.25 0.3429-0.91 0.8409-1 1.2461-0.05 0.1714 0.11 0.5766 0 0.748-0.19 0.265-1.16 0.4676-1.25 0.7481-0.37 1.1293 0.25 1.9863 0.5 2.7423h-0.5c-0.36 0.117-1.1 1.427-1 1.996 0.04 0.203 0.67 0.599 0.75 0.748 0.09 0.171 0.12 0.88 0.25 0.996 0.21 0.179 0.58 0.024 0.75 0.25-0.44 0.942-0.4 1.357-0.75 2.494-0.13-0.086-0.61 0-0.75 0-0.65-1.387-0.81-0.873-0.49-2.992-0.25-0.117-0.78-0.694-1-0.748-0.75-0.203-1.77 0.211-2.5 0-0.24-0.078-0.39-0.905-0.74-0.998-0.28-0.078-1.2 0.196-1 0.25-0.3 0.53-0.67 1.043-1 1.744-0.04 0.078-0.47 0.179-0.5 0.25-0.16 0.405 0.05 1.207-0.25 1.496-0.46 0.421-1.26 0.109-1.74 0.498-0.36 0.272-1.04 3.889-0.5 4.24 0.77 0.499 1.22 0.024 1.75-0.25 0.39-0.21 0.17-0.483 0.24-0.998 0.17 0.054 0.75 0.25 0.75 0.25-0.14 0.748-0.19 0.898-0.25 1.747-0.27 0.054-0.39 0.458-0.5 0.498-0.75 0.256-1.96-0.196-2.74 0l-0.25 0.498c-0.4 0.256-0.76 0.016-1.24 0.25 0.27-1.333 0.4-2.105 0.74-3.243-0.46-0.195-0.12-0.022-0.25-0.498-1.196-0.093-2.248-0.483-2.988 0.498-0.974 1.271-0.615 2.556 0 3.741-0.499 0.599-1.363 1.301-1.496 2.244-0.047 0.296 0.148 0.983 0 1.248-0.054 0.078-1.128 0.217-1.245 0.248-0.078 0.483-0.063 1.107-0.251 1.746 0.046 0.007 0.897 0.162 0.998 0.248 0.273 0.226 0.241 1.046 0.498 1.248-0.545-0.016-3.335 0.241-3.989 0.748-0.624 0.468 0.328 3.007 0 3.988-0.179 0.522-0.974 1.052-1.248 1.497-1.129 1.807-1.955 3.171-3.24 4.738-0.219 0.256-0.872 0.499-0.996 0.998-0.779 3.062 0.748 1.954 1.496 2.242 0.171 0.063 0.974 0.804 1.246 0.998-0.459 0.975-1.589 2.517-0.748 3.99 0.148 0.265 0.842 0.412 0.998 0.746 0.163 0.367-0.351 0.181-0.25 0.75 0.242 1.464 1.878 1.496 3.242 1.496-0.148 0.054-0.951 0.732-0.998 0.747-2.408 0.709-2.05-0.342-2.992 1.996-1.115-1.474-1.947-1.825-4.238-2.244-0.188 0.389-0.461 0.483-0.75 0.748 0.452 1.13 0.468 1.675 0.998 2.742-0.398 0.265-1.199 0.617-1.496 0.998-0.281 0.344-0.194 0.957-0.498 1.246-0.257 0.234-0.694 0.056-0.998 0.25-0.319 0.195-0.756 0.934-0.998 1.246 0.101 0.171 0 0.788 0 0.998 1.263 0.32 1.411 0.459 2.992 0.248-0.139 0.273 0.11 0.452 0 0.748l-0.498 0.25c-0.537 0.818-0.28 1.309-0.498 2.494 0.157 0.085 0.903 0.365 0.996 0.498 0.702 0.965 1.068 1.785 1.746 2.743-0.491 0.327-1.823 0.903-1.994 1.496-0.133 0.429 0.124 0.811 0 1.248 0.653 0.171 1.807 0.397 2.494 0.748 0.147 0.069 0.521 0.684 0.748 0.746 0.436 0.109 0.802-0.117 1.246 0-0.147 0.569-0.281 1.123-0.498 1.996-0.624 0.024-0.701-0.483-1.496-0.248-0.149 0.038-0.515 0.63-0.748 0.746 0.951 1.769-0.119 1.286 2.492 1.496 0.241 0.663 0.514 1.426 0.748 1.994h0.25c0.194 1.053-0.335 1.419-0.25 2.494 0.063 0.897 0.851 2.696 0.998 3.491 0.102 0.576-0.194 1.193 0 1.746 0.032 0.101 0.436 0.226 0.498 0.498 2.066-0.733 0.624 0.429 1.994-1.246 0.274 0.133 0.453-0.118 0.75 0 0.07 0.023 0.584 0.709 0.748 0.748 1.075 0.242 1.23-0.46 2.243 0 1.099 0.498-0.117 1.24-0.25 1.746-0.078 0.28 0.101 0.715 0 0.996 1.839 1.317 2.517 2.082 5.232 1.996 0.14-0.343 0.25-0.921 0.5-1.248 0.19-0.265 0.81-0.28 1-0.498v2.742c0.06 0.304 1.45 1.995 1.75 2.494 0.67-0.054 1.3 0 1.99 0 0.08-0.163 0.35-0.967 0.5-0.998 2.24-0.506 2.84 1.933 3.99 2.244 0.71 0.187 1.11-0.139 1.74-0.248 0.25 0.296 0.37 1.114 0.75 1.246 0.27 0.087 0.74-0.14 1 0 0.05-0.265 0.46-0.396 0.5-0.498 0.14-0.428-0.13-0.819 0-1.248-0.23-0.047-1.34-0.076-1.75-0.248-0.43-0.194-0.62-1.371-0.99-1.496h-0.5c-0.14-0.273 0.13-0.741 0-0.998 0.17-0.272 0.6-0.694 0.74-0.998 0.33 0.296 1.03 0.343 1.25 0.748 0.13 0.234-0.08 0.733 0 0.998 0.1 0.382 0.78 0.686 1 0.998 0.47-0.093 1.01 0.109 1.49 0 0.86-0.202 1.07-1.201 2.25-1.248 1.35-0.062 2.62 1.24 4.49 0.748 1.27-0.343 0.96-1.978 1.74-2.492 0.88-0.584 2.1-0.15 3.24-0.5 0.28-0.094 0.71-0.615 1-0.748 0-0.218-0.1-0.809 0-0.996 0.13-0.272 0.58-0.173 0.75-0.5 1.17 0.374 2.65 1.194 3.99 0.5 0.32-0.172 0.48-1.053 0.75-1.248 0.25-0.203 0.71-0.108 1-0.248 0.24-0.133 0.74-0.874 0.99-0.998 0.59-0.312 1.18-0.28 1.75-0.498 0 0 0.32-1.169 0.25-1.496-0.1-0.382-0.93-0.718-1-0.999-0.19-0.732 0.32-0.63 0.25-1.246 0.35-0.256 0.5-0.639 0.75-0.998 0.97 0.133 2.08 0.437 2.99 0 0.54-0.272 0.38-0.825 0.75-1.246 0.49-0.584 1.63-1.067 2.24-1.496-0.11-0.81-0.36-1.628-0.25-2.244 0.1-0.561 1-1.091 1.25-1.496 0.32-0.537 0.23-0.927 0.5-1.496-0.09-0.063-0.72-0.407-0.75-0.5-0.12-0.288 0.14-0.482 0-0.746 1.99-1.411 2.36-2.167 0-3.492 1.48-0.771 2.76-1.558 4.24-2.243-0.12-0.327 0-0.897 0-1.248-0.3-0.139-0.73-0.662-1-0.748-1-0.311-1.61 0.032-2.24-0.498-0.27-0.225-0.15-0.827-0.25-1.248-0.56 0.195-0.38-0.692-0.5-0.996 0.04 0 1.39 0.092 1 0.248 1.6-0.186 4.4-0.38 2.99-2.492-0.13-0.194-0.94-0.305-1-0.5-0.15-0.49 0.44-1.198 0.25-1.994-0.16-0.631-1.09-0.755-1.25-0.996-0.51-0.78-0.74-1.006 0.25-1.496-0.12-1.707-0.21-1.638 0.75-2.495 0.05-0.055 0.67 0 0.75 0 0.04-0.28 0.02-1.426 0.25-1.746l1.49-0.746c-0.34-1.045-0.74-2.051-0.5-2.744 0.07-0.202 0.71-0.809 0.75-0.996 0.1-0.578-0.34-0.368-0.25-0.75-0.28 0.063-0.97 0.25-1 0.25-0.62 2.096-0.38 2.82-1.74 0.998-0.66 0.078-0.58 0.318-1 0.498 0 0-0.03-1.566 0-1.994 2-0.46 1.25-0.117 2.25-1.496 0.22 0.156 0.48-0.102 0.75 0 0.25 0.101 0.31 0.865 0.49 0.998 1.16 0.818 2.71 0.257 3.75 0-0.12-0.484 0.13-1.03 0-1.496-0.09-0.289-0.92-0.874-1-1.248-0.07-0.281-0.14-1.371 0.25-1.246v-0.498c-0.06-0.156-0.72-0.67-0.75-0.748-0.06-0.149 0.06-0.616 0-0.748 1.85-0.811 2.09-0.952 2.99-2.745l0.5-0.498c0.08-0.545-0.44-0.959-0.25-1.746 0.09-0.436 0.92-0.974 1-1.496 0.07-0.554-0.42-1.161-0.25-1.994 0.1-0.499 1.13-1.339 1.24-1.744 0.15-0.546-0.09-1.193 0-1.746-1.63-0.959-1.55-0.554-1.74-2.992 0.4-0.258 0.15-0.219 0.25-0.748h0.5c0.02 0.498-0.05 1.253 0 1.994 0.04-0.009 1.38-0.046 0.99-0.248 0.1-0.296 0.5-1.278 0.75-1.496 0.03-0.039 0.01-0.702 0-0.748-0.1-0.406-0.74-0.898-0.99-1.249 0.2-0.327 0.56-0.7 0.74-0.996 0.18-0.304 0.7-1.045 0.75-1.248 0.27-1.184-0.48-2.174-0.5-2.742-0.04-0.997 0.61-1.511 0.5-2.742l-0.5-0.748c-0.57-2.758-0.12-2.33-2.74-2.992-0.12 0.498-0.38 1.425-0.5 1.994-0.48 0.124-0.31-0.218-0.5 0.25-0.87-0.04-1.98-0.211-2.49-0.25 0.11-1.909-0.02-2.594-0.5-4.2384-0.72-0.1632-1.96-0.8501-2.99-0.5-0.19 0.0551-0.48 0.6151-0.75 0.748 0 0.5767 0.09 1.1612 0 1.7464h-0.5c-0.25-0.5228 0-0.7944-0.25-1.2464-0.35-0.616-1.6-1.1545-1.74-1.9961-0.25-1.4108 0.68-1.4487 0.5-2.7421-0.06-0.3502-2.19-3.1799-2.5-3.2422-1.38-0.29613-1.58 0.6396-2.24 0.998-0.81 0.4208-1.75 0.6469-2.5 0.9981 0.41 1.6363 1.37 4.6822-1.74 3.9882-1.1-0.2493-0.79-1.004-1.25-1.9941-0.07-0.1631-0.71-0.3339-0.74-0.498-0.23-1.146 0.6-2.1441 0-3.2422-0.36-0.63897-1.26-0.4447-2-0.74808zm-74.303 31.666c-0.14 0.234-0.576 0.07-0.748 0.25-0.358 0.35-0.001 1.263-0.25 1.746-0.234 0.437-1.552 1.076-2.494 0.748 0 0-0.467-1.333-1.246-1.496-0.725-0.156-1.66 0.233-1.994 0.248l-0.25 1.996-1.246 1.496 0.748 0.248c0.483 0.74 0.544 1.038 0.996 1.997-0.265-0.125-0.723 0.093-0.996 0-0.857-0.296-1.785-2.822-2.744-3.243-1.216-0.545-3.31-0.483-4.737-0.748-0.256 0.35-0.639 0.506-0.998 0.748 0.009 0 0 0.709 0 0.748 0.312 0.078 0.398 0.623 0 0.498-0.054-0.015-0.208-0.42-0.248-0.498-0.693 0-1.558 0.023-2.244 0-0.296 1.637-0.998 2.383-1.746 3.491-0.303-0.234-0.702-0.023-0.998-0.248-0.101-0.079-0.474-0.929-0.498-0.998 1.676-0.469-2.813 0.094-0.998 0.25-0.405 0.116-0.692 0.006-0.996 0.248l-1.496 1.746c-0.39 0.693-0.188 2.026-0.998 2.494-0.374 0.21-1.45 0.194-1.747 0.248-1.222 3.21-1.051 1.083-2.992 1.994-0.319 0.141-0.467 1.014-0.748 1.248-0.256 0.194-0.723 0.101-0.996 0.248l-0.25 0.498c-1.09 0.702-2.12 0.461-3.242 0.5-0.148 0.35-0.24 1.075-0.498 1.496-0.428 0.67-1.324 0.554-1.994 0.998-0.857 0.553-2.891 3.788-3.49 3.991-0.079 0.022-1.053-0.283-1.497-0.252-0.92 0.055-2.486 0.547-3.242 0.75 0 1.308 0.109 2.205 0.25 3.242-0.576-0.149 0.086 0.28-0.498 0.248l-0.5-0.5c-0.841-0.226-1.7997 0.585-1.994 0.998-0.4135 0.865-0.0623 1.638 0 2.494 0.4281 0 1.083-0.132 1.496 0-0.226 2.852 0.077 2.891-2.494 2.742-0.0696 0.164-0.6161 0.632-0.748 0.748 0.2877 0.982 0.2194 1.434 0.5 2.494-0.1092-0.016-1.0764 0.186-1.4961 0.248 0 0 0.1084-1.292-2.4942 0.5 0.3657 2.752-0.9115 3.7-0.498 6.731-0.7325 0.421-1.5741 1.06-2.2442 1.496 0.0853 0.436-0.0935 0.804 0 1.248 0.1247 0.624 0.9046 1.449 0.9981 2.244 0.0925 0.866-0.0094 1.605-0.25 2.244-0.0088 0.016-0.4981 0.248-0.4981 0.248-0.2805 1.543 0.3412 3.383 0.4981 4.739 0.3034 0.101 0.6389-0.015 0.748 0.25 0.1092 0.265-0.1402 0.731 0 0.996-0.1797 0.211-0.8505 0.498-0.998 0.748-0.81038 1.309-0.0382 2.487-0.2481 3.99 0 0-0.4459 0.219-0.5 0.25v0.498c-0.07059 0.39-0.31166 1.223 0 1.994 0.0613 0.156 0.6078 0.36 0.7481 0.5v0.498c2.5786 0.18 2.6013 0.203 3.9883-1.496 0.188 0.063 0.7178 0.266 0.75 0.25-0.1092 0.351-0.4699 0.825-0.5 0.996-0.079 0.367 0.25 1.496 0.25 1.496 0.1091 0.078 0.7013 0.36 0.748 0.5 0.186 0.577-0.055 1.377 0 1.997-2.2836-1.06-3.7716-0.84-2.7441 1.99 0.1257 0.35-0.0213 0.57 0.2519 0.75 0.452 0.29 1.1447-0.02 1.7442 0.25 0.1558 0.07 0.5839 0.96 0.748 1 1.6052 0.29 2.2508-1.33 2.7422-2.25 0.2809 0.14 0.6849 0.49 0.9979 0.5-0.8653 1.73-0.522 1.47 0 2.99-0.055 0.03 0 0.69 0 0.75-0.133-0.36-0.273 0.65-0.25 0.75 0.32 1.48 2.368 1.34 3.74 1.25-0.078 0.12 0.047 0.6 0 0.74-0.266 0.67-1.9 1.39-2.492 1.75 0.148 0.42-0.156 0.82 0 1.25 0.085 0.25 1.457 1.42 1.744 1.49 1.03 0.25 2.86-0.4 3.491-0.75 0.233-0.13 0.646-0.94 0.998-0.99 0.793-0.14 1.074 0.31 1.744 0.5-0.016 0 0 0.71 0 0.74-3.109 0.35-3.924 1.12-2.242 3.49 1.333-0.34 1.651-0.16 2.99-0.49 0.102 0.81 0.33 2.43 1 2.74 0.451 0.2 1.23-0.07 1.744 0 2.65 0.36 2.712 1.5 4.488-1 1.278 0.14 2.065 0.36 2.992 0l0.498-0.5c0.835-0.11 1.692 0.45 2.245 0.5 0.709 0.05 0.959-0.25 1.496-0.25 0.156-0.63 0.28-1.18 0.498-1.99-0.397-0.32-0.802-0.48-1.246-0.75v-0.5c0.826-0.39 1.761-1 2.494-1.25 0.857-0.28 2.19-0.4 2.992 0l0.498 0.5c1.285 0.19 1.925-0.61 2.742-0.75 0.561-0.1 1.475 0.22 1.996 0 0.764-0.33 0.717-1.88 1.246-2.49 0.554-0.65 1.807-0.96 2.493-1.5-0.234-0.6 0.748 0 0.748 0 0.35 2.27-0.031 1.89 2.244 2.25 0.374-0.71 0.99-2.22 1.996-2.25 0.436-0.01 0.14 0.35 0.748 0.25 0.125 0.35-0.133 0.89 0 1.25 0.047 0.13 0.623 0.49 0.748 0.75 0.273-0.11 0.708 0.07 0.996 0 0.779-0.22 1.2-2.03 1.496-2.74 2.79-0.12 2.214 0.14 3.242-1.75 1.114 0.15 1.69 0.07 2.743 0 0.054-0.27 0.461-0.4 0.5-0.5 0.187-0.54-0.187-1.2 0-1.74 0.147-0.45 1.2-0.87 1.496-1.25 0.319-0.43 0.365-1.16 0.748-1.5 0.732-0.66 1.877-0.69 2.244-1.74 0.187-0.55-0.109-1.17 0-1.747 0.047-0.296 0.717-1.2 0.748-1.496 0.187-1.901-0.914-2.072-1.996-2.742-0.328 0.436-0.662 0.817-0.996 1.246 0.623 0.118-0.748 0.498-0.748 0.498 0.233-1.347-0.196-1.309 1.246-2.244 0.576-0.381 0.95-0.343 1.496-0.748 0.163-0.132 0.303-0.662 0.498-0.748 0.849-0.412 1.887-0.031 2.744-0.498 0.397-0.225 0.186-1.004 0.498-1.246-0.39-0.717-0.093-0.827-0.748-1.248-0.374-0.241-0.771-0.296-1.246-0.498 0.265-0.179 0.444-0.881 0.748-0.998 0.717-0.288 1.44 0.072 1.994-0.248 0.49-0.296 0.163-0.781 0.498-1.248 0.21-0.312 1.053-0.46 1.248-0.748 0.226-0.359 1.137-3.047 0.996-3.741-0.086-0.397-0.864-0.715-0.996-0.996-0.273-0.584-0.056-0.982-0.252-1.746 0.327-0.015 0.368-0.467 0.5-0.498 0.531-0.14 0.717 0.429 0.996 0.498 1.513 0.343 1.832-0.546 2.494-0.998-0.124-1.067-0.287-2.383-0.248-3.24-1.184-0.6-1.676-0.226-1.746-1.994-0.078-1.716 0.85-1.605 0.998-2.244 0.117-0.522-0.242-1.396-0.25-1.497-0.187-2.198 0.608-2.422 0-4.488 0.335-0.123 0.895 0 1.246 0 0.748-1.597 0.656-0.943 0.25-2.744-0.335-0.101-0.786-0.061-0.996-0.248-0.553-0.513-1.052-1.427-1.496-1.996 1.076-0.856 1.837-1.705 2.99-2.492-0.132-0.436 0.125-0.819 0-1.248-0.046-0.148-0.694-0.739-0.748-0.996-0.233-1.083-0.107-1.777-0.248-2.743 0.281 0.008 1.356 0.186 1.995 0.248 0 0 0.296-1.152 0.25-1.496-0.024-0.124-1.194-3.187-1.249-3.242-0.249-0.233-0.989-0.334-1.246-0.498 0.366-1.153 1.217-3.225-0.248-3.738-0.429-0.157-0.827 0.147-1.248 0-0.179 0.466-0.304 0.894-0.5 1.244-1.245 2.174-0.216 0.143-1.244 0.5 0-0.452 0.109-1.067 0-1.496 0.077-0.046 0.483-0.201 0.498-0.248 0.109-0.367 0.249-0.314 0.498-0.5-0.202-0.546-0.428-1.115-0.498-1.496-0.444 0.21-2.011 0.864-2.494 0.748-0.055-0.016-0.623-0.717-0.748-0.748-0.289-0.078-0.724 0.1-0.996 0-0.195 0.187-0.78 1.17-0.998 1.248-0.272 0.085-0.749-0.14-0.998 0 0.873 0-0.491-3.227-0.498-3.242 1.278-0.476 1.332-0.623 2.244-1.246-0.117-0.437 0-1.053 0-1.497-1.091-0.21-1.309-0.359-2.742-0.25-0.32-0.654-0.242-0.577-0.748-0.998-0.764 0.468-0.866 0.781-1.996 1.248-0.289 2.532-0.132 2.5 1.996 2.493-0.515 1.035-0.421 1.426-0.748 2.744-0.624-0.826-1.528-1.762-2.494-2.244h-0.25c-0.429-0.866-0.117-2.081-0.249-2.993 0.53-0.101 0.468 0 0.749-0.25 0.365-0.343 1.215-0.601 1.496-0.998 0.116-0.171 0.202-1.044 0-0.748-0.078-0.039-0.36-0.926-0.5-0.996-1.185-0.616-2.983 0.241-3.989 0-0.709-0.18-1.076-1.77-1.746-1.996h-0.498zm154.34 3.242l-0.5 0.25c-0.28 0.428-0.12 0.67-0.25 1.246-1.14-0.304-1.61-0.202-2.74-0.498-1.52 3.265-0.98 2.345-4.74 2.493l-1.25 0.5c-0.19 0.038-0.44-0.219-0.25-0.25-0.35-0.156-0.9 0.147-1.24 0-0.32-0.141-0.38-1.723-1.75-1.248-0.03 0.008-0.6 0.952 0 0.75 0 0 0.2 1.222 0.25 1.496-1.14 0.81-0.96 0.52-1.74 1.744-0.74-0.218-1.01-0.171-1.5-0.498-0.94-0.632-0.44-1.178-0.25-0.998 0.09-0.554 0.73-0.529 0.5-1.496-0.06-0.233-0.87-0.546-1-0.748-0.21-0.312-0.13-0.6-0.25-0.997-0.08 0.016-0.88-0.187-1.24-0.25-0.1 1.239-0.21 2.517 0 3.991-0.61 0.062-2.17-0.026-3 0.248-0.36 0.109-1.13 1.199-1.49 1.496-0.31-0.14-0.93 0-1.25 0-0.11-0.405-0.16-0.85-0.25-1.496-0.7-0.18-1.71-0.849-2.99-0.498-0.16 0.038-0.67 0.717-0.75 0.748h-0.5c-1.8 1.761 0.99 2.158 2 2.742 0.31 0.18 0.68 0.802 1 0.996-0.42 0.282-0.69 0.461-1 0.75-1.09-0.772-2.31-1.684-4.24-0.998-0.42 0.14-0.83 0.881-1.25 0.998-0.47 0.125-1.02-0.095-1.49 0-0.26-0.99-0.81-2.954-2-2.992-0.39-0.016-0.73 0.389-1.25 0.498-0.06 0.265-0.46 0.391-0.5 0.5-0.23 0.662-0.2 1.752-0.24 2.242-1.83 0.469-3.07 0.998-5.24 1.248-0.37 0.981-0.61 1.644-1 2.494h-0.5v-0.5c-0.42-1.2-1.63-0.678-2.49-0.498-0.32 1.901-0.81 2.291-1.49 3.74-2.13-0.709-1.66-0.67-3.25 0 0 0.452 0.11 1.045 0 1.496l0.75 0.249c-0.01 0 0 0.71 0 0.75-1.26-0.189-1.96-0.04-2.99 0-0.09 0.561-0.69 0.489-0.5 1.494 0.01 0.055 0.79 0.975 0.75 0.998-0.71 0.297-1.06 1.993-1.25 2.742-2.06 0.521-3.03 0.459-4.49 1.496 0.09 0.561-0.19 1.208 0 1.746 0.17 0.467 1.42 0.834 1.75 1.246 0.39 0.492 0.48 1.667 1 1.994 0.57 0.36 1.11-0.078 1.49 0 0.06 0.009 0.27 0.462 0.5 0.5-0.01 0.016-0.44 1.482-0.25 1.496-1.66-0.185-2.15-0.164-3.74 0.248 0.11-1.168 0.4-2.85-0.75-3.24-0.28-0.101-0.74 0.118-0.99 0-0.07 0.265-0.47 0.389-0.5 0.498-0.4 1.154 0.53 1.62 0.25 2.742-0.17 0.601-3.56 3.398-4.24 4.241 0.29 0.28 0.12 0.467 0.25 0.998 0.6 0.155 1.61 0.621 2.24 0.746-2.87 0.709-4.28 1.73-2.99 4.488-0.87 0.616-3.01 2.93-2.74 4.488 0.05 0.343 0.91 0.749 0.99 0.998 0.1 0.274-0.12 0.732 0 0.997-0.54 0.311-3.36 2.401-3.49 2.744-0.17 0.444 0.11 1.021 0 1.496 0.11 0.024 0.81 0.139 1 0.248s0.1 0.654 0.25 0.748c-0.4 0.67-1.56 1.558-1.75 2.244-0.28 1.037 0.47 2.915-0.5 3.242-0.56 0.18 0.75 1.496 0.75 1.496v0.25c0.18 0.085 0.65 0.863 0.75 0.996 0.26 0.359 0.43 0.469 0.75 0.749-0.53 0.77-1.81 2.07-1.25 3.74 0.06 0.18 0.62 0.48 0.75 0.75 0.7-0.12 1.24-0.24 1.75-0.25v2.49c0.05-0.54 0.01 2.61 0.25 2.99 0.15 0.26 1.2 0.29 1.49 0.5 0.17 0.13 0.27 0.85 0.5 1 0.57 0.35 1.71 0.57 2.24 0.75 0 0.65-0.22 1.88 0 2.49 0.27 0.73 1.46 0.67 2.25 1 0.25-0.37 0.71-0.63 1-1 0.22-0.3 0.32-0.7 0.5-1 0.2 0.6 0.73 2.36 1.24 2.75 0.87 0.67 1.79 0.4 2.99 0.25-0.11 0.17 0.04 0.56 0 0.74-0.07 0.27-1.03 1.04-1.24 1.25 0.22 0.32 0.36 0.93 0.5 1.25 0.81 0 1.52-0.11 2.49 0 0.39 0.04 1 0.71 1.99 0.5 0.22-0.06 0.78-0.93 1-1 0.28-0.1 0.73 0.11 1 0 1.43 2.02 0.5 2.13 3.49 2.74 0.83-1.19 1.59-3.73 3.99-3.24 0.14 0.02 0.73 0.94 1 1 0.92 0.19 1.44-0.54 2.49-0.25 0.24 0.06 0.52 0.86 0.75 1 0.39 0.24 0.8-0.01 1.24 0.24 0.25 0.14 0.29 0.85 0.5 1 0.43 0.31 3.52 1.52 4.49 1.25 0.43-0.13 0.7-1.12 1.25-1.25 1.33-0.33 1.95 0.57 3.24 0.25 0.88-0.22 1.44-1.95 1.75-2.74 3.41 0.46 2.28 0.08 4.23-1.25 0.4-0.28 0.88-0.22 1.25-0.5 0.22-0.17 0.49-0.92 0.75-0.99 1.01-0.34 2.2 0.25 3.24 0 0.44-0.12 0.89-0.78 1.25-1-0.08-0.42-0.27-1.12-0.25-1.25-0.6-0.27-1.23-0.74-1.75-1 0.84 0.07 1.99 0.33 2.49 0.25 0.89-0.14 3.1-1.84 3.25-2.74 0.12-0.81-1.15-1.8 0-2.24 0.61-0.24 1.58 0.1 2.24 0 0.59-0.1 1.71-0.8 2.24-1-0.11-0.33 0-0.9 0-1.25-1.69-0.8-2.02-0.86-3.74 0.25l-0.25 0.5c-0.88 0.15-0.7-0.46-1.24-0.5 0.06-0.38 0.26-1.16 0.25-1.24 1.97 0.18 2.93 0.18 3.99-1 1.88-2.12 0.82-2.73-1.5-3.49 0.13-0.28-0.12-0.46 0-0.75 0.1-0.28 0.9-0.723 1-0.997 0.09-0.28-0.12-0.733 0-0.998h0.5c0.04 0.024 0 0.905 0 0.998 0.32 0.165 0.58 0.164 0.74 0.498 1.34-0.443 3.59-1.331 3.74-2.742 0.22-2.135-2.37-2.082-3.74-1.996 0.59-1.425 0.77-2.196 0.5-3.988 0.6-0.218 0.87-0.117 1.5-0.25 0.05-0.272 0.46-0.396 0.5-0.498 0.45-1.325-0.06-1.263 0.75-2.244 0.31-0.39 0.85-0.663 1.24-0.998-0.06 0.218-0.48 0.866-0.5 0.998-0.12 0.826 0.47 1.035 0.25 1.744-0.08 0.249-1.04 0.811-1.24 0.998 0.11 0.32 0 0.888 0 1.246 1.22 0.234 1.1 1.123 2.49-0.248 0.44-0.452 0.25-0.826 0.5-1.496 0.23 0.147 0.73-0.109 1 0 0.19 0.078 0.42 1.043 0.5 1.246 0.98-0.475 2.27-0.592 2.74-1.496 0.11-0.226 0.76-3.545 0.75-3.74-0.04-0.413-0.68-0.796-0.5-1.747 0 0 1.13-1.97 1.25-2.244-0.87-0.233-1.07-0.552-2-0.748 0.13-0.085-0.14-0.669 0-0.748 0.36-0.218 0.87-0.162 1.25-0.248-0.02-0.28-0.17-1.504 0-1.996 0.06-0.21 0.81-0.599 0.99-0.748-0.58-1.238-0.73-1.954-1.24-3.24 0.53-0.257 1-0.173 1.49-0.5 0.2-0.139 0.52-0.91 0.75-0.996 0.79-0.319 1.54-0.016 2.24-0.248 0.46-0.164 0.78-0.758 1.5-0.75 1.54 0.015 1.86 1.589 2.25 2.742 0.22-0.132 0.83-0.505 0.99-0.496-0.1-1.341 0.07-1.88 0.25-2.994 0.05-0.296-0.23-0.639-0.25-0.498v-0.748c0.86-0.678 1.63-1.324 2.5-1.995-0.1-0.484 0.12-1.029 0-1.496l-0.5-0.498s-0.23-0.452-0.25-0.5c-0.81 0.118-1.73 0.492-2.5 0.25-0.12-0.038-0.54-0.654-0.74-0.748 0.58-0.949 0.74-1.286 1.49-1.996-0.33-1.308-1.2-5.002-0.99-6.232 0.15-0.975 1.69-1.715 1.99-2.494 0.72-1.971-0.62-6.491-1.75-6.981-1.18-0.515-2.56 0.297-3.73-0.25-0.38-0.179-0.26-0.903-0.5-1.246-0.52-0.71-1.56-0.477-2.25-0.998-0.79-0.601-1.64-3.661-2.49-3.988-0.27-0.102-0.53 0.155-0.75 0-0.45 2.485-0.37 2.384-2.74 2.992-0.18-0.327-0.24-0.882-0.5-1.248-0.2-0.273-1.17-0.492-1.25-0.748-0.29-0.935 0.54-1.425 0.25-2.492-0.11-0.374-0.97-0.757-1.25-0.998 0 0 0.23-0.468 0.25-0.5 0.61 0.047 1.42-0.195 2 0 0.5 0.164 0.86 1.333 1.5 1.498 3.16 0.802 2.5-1.528 1.24-2.495-0.84-0.654-1.57-0.919-2.49-1.496zm-92.21 66.049c-0.19 0.02-0.37 0.14-0.55 0.03-0.12 0.2-0.77 0.38-0.99 0.5 0.01 0.13 0 3.24 0 3.24-0.13 0.18-0.63 0.3-0.75 0.5-0.11 0.16-0.12 1.13-0.25 1.24-0.38 0.31-0.62 0.13-1.25 0.25 0.31 0.16-0.59 0.3-0.75 0.25-0.11-0.04-0.24-0.42-0.5-0.5 0.18-1.31 0.5-2.77-0.74-3.24-0.5-0.2-0.58 0.35-1.25 0.25-0.21-0.04-0.79-0.71-1-0.75-1.97-0.43-2.82 0.89-3.74 1.5-0.25-0.17-0.48 0.1-0.75 0-0.38-0.15-0.64-1.09-0.99-1.25-0.88-0.42-3.09-0.24-3.99 0.25-1.19 0.64-0.56 3.31-1.25 4.49-0.11 0.18-1.72 1.48-1.99 1.74-0.291-0.27-1.226-1.41-1.498-1.49-2.604-0.75-4.2 3.71-5.487-1-0.14-0.02-0.958-0.38-1.496-0.25l-0.248 0.5c-0.826 0.53-1.513 1.61-0.252 2.24 0.211 0.1-0.35 0.28-0.248 0.5-0.545 0.14-1.2 0.6-1.746 0.5-0.638-0.13-0.561-1.23-1.994-1-0.351 0.06-2.088 1.71-2.244 1.75-0.554 0.12-1.715-0.16-2.494-0.25l-0.248 0.75c-1.972 0.51 0.162-1.01 0.498-1.25-0.071-0.38-0.265-1.16-0.25-1.25-1.005-0.15-1.3-0.1-2.242-0.24-0.071 0.32-0.298 0.33-0.5 0.49 0.256 1.02 0.25 1.45 0.5 2.25-0.632 0.29-1.474 0.15-1.747 0.75-0.242 0.49-0.211 1.88-0.25 2.24-0.507-0.16-0.497 0.4-0.996 0.25-0.328-0.1-0.515-1.11-0.998-1.25-1.302-0.39-2.478-0.07-3.74-0.25-0.203 2.51-1.363 4.13-2.492 5.74-0.117-0.09-0.632 0-0.748 0-0.523-1.11-0.452-0.89-0.748-2.5-0.421-0.11-0.391 0.19-0.5-0.24-0.258 0.13-0.731-0.1-0.996 0-0.118 0.03-0.244 0.4-0.5 0.49 0 0.01 0.024 1.17 0.25 0.75-0.063 0.24-0.25 1-0.25 1-0.577 0.09-1.207-0.19-1.744 0-0.359 0.12-0.648 1.09-0.998 1.25-1.824 0.79-3.414-0.26-4.739-0.75-0.53 0.72-0.903 0.86-1.246 1.99 0.008-0.19 0.094-1.67 0-1.99-0.047-0.15-0.459-0.19-0.498-0.5-0.358 0.13-0.898-0.13-1.248 0-0.195 0.06-0.653 0.55-0.996 0.75-0.241-0.16-0.499-0.87-0.748-1-0.359-0.19-2.947-0.67-3.492-0.5-0.047 0.01-0.202 0.45-0.248 0.5-1.458 1.28-0.703 0.98-0.5 2.49l0.25 1c0.007-0.01 1.169-0.03 0.748-0.25 0.288 0 0.702 0.02 0.998 0 0 0.08-0.039 0.98 0 1-0.592-0.12-0.413 0.36-0.998 0.25-0.203-0.04-0.796-0.96-0.998-1-0.771-0.16-3.443 0.68-3.989 1-0.249 0.14-0.071 0.57-0.25 0.75-0.303 0.28-0.856 0.25-1.246 0.5-0.163 0.09-0.342 0.68-0.498 0.74-0.148 0.06-0.615-0.07-0.748 0-0.18-0.46-0.375 0.01-0.5-0.25-0.101-0.2 0-0.78 0-0.99-0.436-0.11-0.139-0.1-0.248-0.5-0.436 0-1.091 0.12-1.496 0-0.553 0.77-1.17 1.81-1.996 2.24-1.207 0.62-4.051 0.76-4.736 1.75-0.265 0.36 0.008 0.62-0.25 1-0.437-0.16-0.195 0.27-0.25 0.49-0.639-0.19 0 0.75 0 0.75 0.655 0.2 0.81-0.26 1.496-0.25 0 0.03-0.008 0.74 0 0.75-0.615 0.18-0.561 0.08-1.246 0.25 0.374 0.26-0.702 0.23-0.748 0.25l-0.25-1.25c-0.172-0.1-1.176 0.14-1.246 0-0.21-0.41 0-1.52 0-1.99-2.673-0.6-1.816-0.43-2.993 1.74-0.046 0.08-0.748 0.73-0.748 0.75-0.202 0.89 0.368 1.68 0.25 2.25-0.062 0.26-0.662 0.49-0.748 0.74-0.303-0.13-0.912 0-1.248 0 0.04-0.7 0.11-0.99 0.25-1.74-0.218-0.17-0.443-0.15-0.498-0.5-0.475 0.02-1.744 0.25-1.744 0.25-0.017 0.02-0.711 0.2-0.75 0.25-0.35 0.33-0.155 1.39-0.498 1.74-0.499 0.49-1.481 0.3-1.996 0.75-0.172 0.14 0 0.64-0.248 0.75-0.351 0.13-0.905-0.14-1.248 0 0.257-0.13-0.496-0.5-0.496-0.5 0.045-0.08 0.496-0.75 0.496-0.75 0.888-0.27 1.762-0.13 2.246-0.74 0.046-0.07 0.498-0.75 0.498-0.75 0.085-0.38-0.25-1.5-0.25-1.5-2.361 0-3.725 0.28-4.986 2-0.211 0.27-0.211 0.86-0.498 0.99-0.764 0.34-1.637-0.11-2.245 0.25-0.319 0.18-1.262 3.15-0.998 3.99 0.055 0.17 0.624 0.48 0.748 0.75 0.452 0 1.045-0.11 1.496 0-0.032 0.05-0.304 0.48-0.25 0.5-1.908 0.33-1.971 0.75-2.742 2.24-2.486 0-2.8749 0.2-3.49 2v0.5c-0.507 0.4-1.4652 0.12-1.996 0.49-1.2229 0.85-0.2481 4.34-0.2481 6.49 1.0826 0.29 2.6255 0.8 2.9922 1.74 0.1009 0.27-0.1642 0.5 0 0.75-0.5849 0.41-3.8812 3.33-3.9902 3.74-0.2338 0.79 0.1803 1.32 0.25 2 0.3272-0.02 0.8259 0.37 1.4961 0.25 0.5308-0.11 0.6542-0.78 0.996-1 0.0088 0 1.1085 0.39 0.75 0.5 0.1548 0.11 0.662 0.32 0.748 0.5 0.281 0.56 0.054 0.98 0.248 1.74-0.343 0.06-0.366 0.48-0.4979 0.75-0.2732-0.13-0.5694-0.69-0.7481-0.75-0.5298-0.18-1.2006 0.08-1.746 0-0.265 0.81-1.1208 2.3-0.9961 3.24 0.0156 0.16 0.6993 0.64 0.7461 0.75 0.375 0.84-0.0697 0.86 0 1.74-0.319-0.16-0.2007 0.39-0.7461 0.25-0.0624-0.01-0.2819-0.44-0.5-0.49 0.989-0.38-1.3943-0.38-0.7481-0.25l-0.248 0.99c0.9973 0.61 2.8118 1.05 3.4902 2 0.373 0.53 0.2566 1.34 0.748 1.74 0.779 0.65 1.744 0.27 1.994 1.5 0.28 1.43-0.709 1.84-0.498 2.99 0.109 0.63 1.247 0.99 1.496 1.5 0.186 0.39 0.474 1.79 0.498 1.99 0.101 1.12-0.288 3.92 0.25 5.24h0.25c0.747 0.37 1.292 1.75 1.994 1.99h0.498c0.125 0.11 0.079 0.66 0.25 0.75 0.554 0.28 1.168-0.07 1.745 0.25 0.46 0.26 2.478 3.1 1.498 3.99 1.238 0.97 3.746 1.61 3.488 3.99-0.008 0-0.654 1.03-0.746 1.25 0.31-0.17 0.193 0.38 0.746 0.25 0.273-0.07 0.344-0.73 0.5-1 0.195 0 0.825 0.1 0.996 0 0.523 0.5 2.549 2.02 0.748 2.49-0.179-0.22-0.498-0.91-0.748-0.99-0.28-0.11-0.738 0.11-0.996 0-0.125 0.24-0.554 0.57-0.748 0.74 0 0 0 0.91 0.248 0.5 0.171 0.57 0.111 0.41 0.252 1 0.499-0.24 0.248 1.74 0.248 1.74 1.504-0.49 2.043-0.62 3.74-0.49 0.04-0.09 0.201-0.5 0.248-0.5 0.227-0.07 1.225 0.18 0.998 0.25 0.375 0.63 0.81 1.18 1.246 1.74-1.145 0.34-2.476 0.38-2.742 1.5-0.038 0.12 0.063 0.63 0 0.75-0.156 0.25-0.903 0.46-0.998 0.74-0.132 0.35 0.125 0.89 0 1.25 0.452-0.22 0.836-0.02 1.248-0.25 0.46-0.27 0.818-1.16 1.246-1.5 0.842-0.68 1.667-1.05 2.494-1.74 0.576 0.84 1.262 2.02 1.995 2.74 0.304 0.31 1.333 0.61 1.496 1 0.288 0.72-0.304 0.92-0.25 1.49l0.5 0.75c0.366 1.83 0.102 1.37 0.748 2.75 0.273-0.11 0.708 0.07 0.996 0 0.685-0.19 1.442-1.3 1.996-1.75 1.878 1.7 3.459 3.06 6.482 1.5-0.163 1.48-0.326 2.94 0.998 3.49 0.398 0.16 0.763-0.07 0.996 0.25 0.172 0.23 0.632 1.96 0.748 2.24 2.829-0.42 3.577-0.08 5.487 1 0.382-0.24 1.402-1.36 1.994-1.25 0 0-0.196 1.21-0.25 1.5 0.179 0.12 1.394 0.82 1.496 0.99 0.203 0.39-0.102 1.06 0 1.5 0.094 0.43 1.193 1.22 1.248 1.5 0.101 0.57-0.367 0.92-0.5 1.49 0.686-0.15 1.731-0.62 2.494-0.49 0.702 0.11 1.232 1.17 1.746 1.49 0.398 0.25 0.802-0.01 1.246 0.25 0.678 0.39 1.933 3.01 2.245 3.99 0.942-0.31 2.672-0.75 3.74-0.75 0.311-0.01 0.849 0.5 1.496 0.25v-0.25c0.405-0.21 0.444-0.79 0.748-1 0.405-0.28 0.77 0 1.246-0.24 0.748 2.47-0.234 1.57 2.244 2.24 0.054-0.09 0.398-0.72 0.5-0.75 0.281-0.11 0.475 0.14 0.748 0 0.21 0.17 0.506 0.87 0.748 1 0.693 0.37 2.703 0.4 3.49 0.5 0.086 0.56-0.195 1.2 0 1.74 0.382 1.06 5.01 1.92 6.483 2.25 0.109 0.43-0.117 0.8 0 1.24 0.007 0.04 2.174 2.21 2.244 2.25 2.19 0.99 2.259-0.7 3.242-1 1.994-0.62 2.726 0.57 3.489 1 0.406 0.22 0.787 0.03 1.248 0.25 0.139-0.37 0.413-0.34 0.748-0.5-0.195-1.4-0.125-2.16-0.248-2.99 0.396 0.1 0.598-0.14 0.996-0.25 0.218 0.38 0.833 1.83 1.246 1.99 1.41 0.53 3.26-0.47 4.24-0.5 1.67-0.07 1.89 0.55 2.74 1.25 2.34-1.03 2.54-0.06 5.24-0.5 0.25-0.05 1.35-0.73 1.49-0.75 0.87-0.14 1.71 0.34 2.25 0.25 0.23-0.05 0.73-0.63 0.99-0.75-0.11-0.44 0.11-0.81 0-1.24-0.02-0.1-2.49-3.63 0.75-2.75 0.11 0.03 0.56 0.71 0.75 0.75 0.51 0.09 0.77-0.29 1-0.25-0.27-0.2 0.2-1.07 0.25-1.24-0.28-0.15-0.11-0.44-0.25-0.5-0.44-0.22-0.83-0.15-1.25-0.25 0.03-0.51-0.27-0.75-0.25-1 0.07-0.89 1.58-1.35 2-1.99 0.31-0.5 0.17-1.22 0.5-1.75 0.37-0.64 3.31-1.92 4.48-1.74 0.12 0.01 0.7 0.72 0.75 0.74 0.26 0.09 0.76-0.14 1 0 0.34 0.2 0.63 1.1 1 1.25 0.18 0.07 0.55-0.13 0.75 0 0.21-2.82 0.1-2.17 2.24-2.24-0.03 0.66 0.15 1.59 0 2.24-0.02 0.02-0.71 0.46-0.75 0.5 0.45 1.68-0.1 1.19 1 2.24-0.27 0.08-0.39 0.46-0.5 0.5-0.39 0.13-0.85-0.11-1.25 0 0.4 0.15-0.95 0.24-0.99 0.25-0.07-0.18-0.11-0.54-0.25-0.75-1.24-1.84-0.93-1.74-3.99-1.74-0.17 0.48-0.18 1.3-0.5 1.74-0.28 0.36-1.15 0.44-1.5 0.75-0.37 0.33-0.23 0.24-0.5 0.75 0.01 0 0 0.71 0 0.75 0.17 0 0.85-0.11 1 0-0.01 0.08 0.18 0.86 0.25 1.24-1.23 0 0.09 1.96 0.25 2.25-0.82 0.64-1.5 1.3-2.24 1.99 0.13 0.44 0.31 0.54 0.25 1 2.59 1.52 3.1 1.25 4.48-1.25 0.17 0.2 0.83 0.27 1 0.5 0.22 0.3 0.05 0.68 0.25 1 1 1.63 2.22 0.84 3.49 0.25-0.21-1.89-0.04-2.22 0.25-3.49 0.24 0.14 0.73-0.12 1 0 0.37 0.15 0.71 1.35 1.24 1.49 1.88 0.47 2.15-0.95 3-1.49 0.43-0.29 0.79-0.03 1.24-0.25 0.44-0.23 0.86-0.96 1.25-1.25 0.2 0.09 0.54-0.05 0.75 0 0.39 0.09 0.7 0.86 0.99 1 0.85 0.39 1.32 0.05 2.25 0 0.04-0.17 0.48-0.7 0.5-0.75 0.34-1.35-0.77-2.01 0.25-2.74 0.25 0.12 0.71-0.1 0.99 0 0.39 0.13 0.46 1.03 0.75 1.24 1.34 0.98 2.43 0 3.49-0.49-0.03-0.74 0-1.52 0-2.25-0.57-0.23-2.05-0.68-2.24-1.24-0.1-0.29 0.12-0.74 0-1 0.65 0.18 0.55-0.41 1.25 0 0.82 0.48 0.33 1.62 1.99 1.49 0.98-0.07 1.9-1.16 2.24-1.99 0 0 0.62-0.33 0.25-0.5-0.41-0.19-0.89-0.98-0.74-1.74 0.01-0.12 0.67-0.42 0.74-0.5 0.59-0.78 0.46-1.39 0.75-2.5-0.22-0.17-0.44-0.15-0.5-0.5-0.08 0-0.68 0.05-0.75 0v-0.74c3.42 1.58 3.79 0.18 6.99-0.75 0.07-0.45 0.02-1.42 0.25-2 0.1-0.29 0.89-0.63 0.99-0.99 0.14-0.5-0.1-0.99 0-1.5-0.22-0.18-0.42-0.16-0.5-0.5-0.33 0-0.95 0.13-1.24 0-0.17-0.08-0.4-0.94-0.5-1 0.23 0 0.58-0.38 0.75-0.5 1.38 0.93 0.84 0.81 2.74 0.75-0.06-0.6 0.3-0.4 0.25-0.99-0.03-0.26-0.73-0.9-0.75-1-0.17-0.88 0.4-1.11 0.5-1.5 0.11-0.48-0.13-1.03 0-1.49 0.14-0.54 0.93-1.04 1.25-1.5-0.11-0.18 0.03-0.57 0-0.75-0.14-0.57-1.28-0.96-1.75-1.24 0.61-2.09 1.37-2.76 1.75-5.24-0.21-0.05-0.67-0.48-0.75-0.5-1.5-0.33-2.23 1.18-2.99 1.75-0.14 0.09-0.42 0.61-0.5 0.74-0.11-0.5-0.28-1.69-0.5-2.49-0.06-0.2-0.72-0.79-0.75-1-0.24-1.48 1.22-1.68 1.5-2.74v-0.25c-0.05 0.19-0.31-0.73-0.25-1 0.08-0.4 2.04-3.83 1-4.48-1.49-0.94-2.39 0.53-3.25 0.74-0.15 0.03-0.62-0.06-0.74 0-0.07-0.27-0.47-0.39-0.5-0.49-0.28-0.79 0-2.16 0-3 0.13 0.46 0.25-0.25 0.25-0.25-0.86-1.87-0.68-1.4-2.75-1.24-0.22 0.86-0.74 4.06-1.49 4.49-0.6 0.32-1.42-0.01-2 0.25-0.11 0.04-0.7 0.73-0.75 0.74-0.54 0.12-0.73-0.31-0.99-0.25 0.29 0-0.25-0.74-0.25-0.74-0.07-0.91 0.92-2.46 1-3 0.12-0.99-0.38-1.83-0.5-2.49l0.25-0.75c0.46 0.1 1.02-0.15 1.49 0 1.17 0.39 0.77 2.62 2.74 1.75 1.97-0.88 0.79-3.01 0.25-4.24-1.31 0.1-1.87 0.08-2.99 0.25 0.49-1.69 0.33-1.52 0-3-0.23-0.03-0.82-0.31-1.24-0.49 0 0-1.66 1.61-1.25 1.74 1.07 0.33 0.49 3.18 0 3.99-0.37 0.59-1.58 0.97-2.25 1.25 0.19-3.19-0.09-2.51 2-4.49-0.3-0.92-0.23-1.15-0.5-2 0.13-0.1 0.68-0.35 0.75-0.49 0.22-0.49-0.21-0.74 0.25-1 0 0-0.46-1.3-0.5-1.5 0.25 0.16 0.74 0.09 1 0.25 0.15 0.1 0.34 0.7 0.5 0.75 0.27 0.09 1.2-0.19 0.99-0.25 0.05-0.15 0.7-0.36 0.75-0.5 0.26-0.75-0.26-1.99 0-2.74 0.19-0.55 1.54-0.32 1.25-1.99-0.1-0.57-1.11-1.14-1.5-1.5 0.75-1.62 0.75-0.97 0.25-2.49-0.37-1.13-0.69-2.33-1.74-2.75-2.73-1.07-3.09 0.47-2.75 2.75-0.18 0.13-1.19 0.56-1.25 0.74v0.5h-0.49c-0.19-0.67-0.05-1.14-0.5-1.49l-0.25-0.25c0.12-0.12-0.07-0.59 0-0.75h0.25c0.96-0.48 1.35-1.43 1.99-2.24-2.45-0.45-2.45-1.55-3.24-4.24 0.59-0.29 1.86-1.23 2.5-1.25 1.32-0.06 1.01 0.69 1.49 1 0.45 0.28 0.76-0.05 1.25 0.25 0.31-0.22 0.65-0.59 1-0.75-0.19-0.73 0.07-1.23-0.25-1.75-0.04-0.05-1-0.5-1-0.5-0.24-0.93 0.69-0.91 0.5-1.99-0.1-0.56-0.98-0.86-1.25-1.25-0.22-0.32-0.06-0.69-0.25-1-0.43-0.7-1.52-1.08-2.24-1.49 0.11-0.48-0.14-1.03 0-1.5 0.08-0.27 0.95-0.88 0.99-1.24 0.14-1.39-1.31-2.13-2.24-2.5-0.51-0.2 0.69-0.55 1-0.5l0.5 0.5c2.21 0.59 1.8-1.55 1.74-2.74-0.32-0.06-0.36-0.45-0.5-0.5-1.21-0.42-2.79 0.96-3.49 1.25l-0.5-0.75c0.05-0.15 0.7-0.36 0.75-0.5 0.14-0.42 0-1.05 0-1.49 0.38 0.16 0.14-0.41 0.75-0.25 0.1 0.02 0.37 0.66 0.5 0.74 1.27 0.79 1.79 0.17 2.74-0.49-1.02-2.54-1.04-3.53-3.99-2 0.04-0.03 0-0.7 0-0.75 0.99-0.43 1.48-0.36 2-1.24 0.06-0.12 0.36-0.19 0.5-0.25-0.12-0.27 0.09-0.73 0-1-0.17-0.49-1.13-0.96-1.25-1.5-0.32-1.44 0.22-2.51 0-3.99 0.24 0.14 0.49-0.42 0.99 0 0.54 0.45 0.08 2.51 0 3.5 0.48-0.08 0.91 0.31 1.75 0 0.08-0.04 0.18-0.49 0.25-0.5 0.02-0.23 0.71-0.65 0.5-1.5-0.02-0.06-0.53-0.57-0.5-0.75 0.05-0.36 1.11-0.61 1-1.99-0.07-0.82-0.91-0.58-0.5-1.75 0.02-0.07 0.66-0.62 0.75-0.75 0 0-0.06-0.64-0.25-0.25-0.16-0.08-0.27-0.91-0.5-0.99-0.51-0.19-1.45 0-2 0v-0.5h0.25c0.04-0.18 0.12-1.14 0.25-1.25 1.07-0.95 2.23 0.11 3.49-0.25 0.15-0.04 0.51-0.64 0.75-0.75 0-0.22-0.1-0.79 0-0.99-0.83-1.02-1.54-1.58-2.74-2.25 0-0.31 0.15-1.24 0-1.49-0.3-0.49-0.79-0.16-1.25-0.5-0.57-0.42-0.81-1.77-0.99-2.5-0.28-0.06-0.4-0.46-0.5-0.49-3.11-1.08-1.95 2.53-1.5 3.74-0.44 0.14-0.46 0.01-0.75 0.25-0.96 0.76-0.84 0.66-2.24 0.24 0.18-0.3-0.52-0.34-0.25-0.49 1.4-0.85 0.82-2.45 0.75-4.49l0.75-0.25c1.25-2.21 0.23-2.07-2-2 0.17 2.51 0.53 1.8-1.49 2.25-1.31-1.9-1.81-2.25-4.24-2.25-0.1 0.21-0.3 0.96-0.5 1.25 0.09 0.15 0.71 0.65 0.75 0.75-0.14 0.09 0 1.06 0 1.25-0.7 0.13-0.99 0.01-1.5 0.24-0.37-1.41-0.64-3.56-1.25-4.73 0.73-0.59 1.21-0.96 1.75-1.75-0.21-0.34-0.17-0.9-0.25-1.24-0.17-0.04-1.28-0.18-1 0-0.76 0.4-0.8 0.06-1.25 0.74-0.11 0.16-0.48 1.34-0.49 1.5-0.29-0.07-0.99-0.26-1-0.25-0.15-0.2-0.3-0.62-0.5-0.75-0.27 0.18-0.41-0.43-0.5-0.5 1.86-1.04 1.91-0.71 1.5-2.74-0.32-0.05-0.36-0.45-0.5-0.5-0.31-0.11-1.17 0.2-1 0.25h-0.5c-0.37 0.13-0.33 1.1-0.75 1.25-0.27 0.08-0.74-0.14-0.99 0-0.31-1.16-0.76-2.86-1.75-3.24-0.07-0.03-0.13-0.03-0.2-0.03zm104.18 11.99c-0.21 0.32-0.87 0.59-1 1-0.01 0.02 0.18 0.72 0.25 1-0.27 0.05-0.4 0.46-0.5 0.5-0.65 0.22-1.51 0.16-2 0.25-0.18 2.32-0.85 3.38-0.74 5.23-1-1.86-1.7-1.71-3.24-0.5-0.24-0.29-0.43-1.06-0.75-1.24-0.81-0.45-4.37-0.22-5.74-0.5-0.06 0.27-0.47 0.39-0.5 0.5-0.32 0.91 0 2.51 0 3.49-0.04 0.01-0.5 0.25-0.5 0.25-0.17-0.38-0.46-0.5-0.74-0.75 0.64-2.14 0.07-4.99-2.5-3.24-0.32 0.21-0.22 0.99-0.5 1.25-0.24 0.22-0.98 0.38-1.24 0.49 0.18 0.7-0.07 1.17 0.25 1.75 0.48 0.88 2.64 0.75 2.99 1.75 0.15 0.41-0.16 0.81 0 1.24-0.09 0-0.69-0.05-0.75 0-0.78-0.71-1.06-1.16-1.49-2.24-0.84-0.12-2.23 0.05-3.25-0.25-0.08-0.03-0.59-0.73-0.74-0.75-0.94-0.15-1.27 0.59-2.25 0.25-0.11-0.04-0.24-0.45-0.5-0.5 1.31-0.75 1.2-0.62 1-2.49l-0.75-0.25c-0.21 0.29-0.57 0.24-0.75 0.5-0.14 0.21-0.07 1.1-0.24 1.24-0.6 0.47-1.48-0.1-2 0.75-0.22 0.35-0.65 2.36-0.75 2.74-4.82-1.41-3.03 2.23-5.98 2.25 0 0-0.62-0.23-0.75-0.25v-0.5c0.34-0.12 0.89 0 1.25 0-0.12-0.08 0.21-0.43 0.25-0.5-0.25-0.2-0.38-0.13-0.5-0.5-1.01-0.18-2.52-0.63-3.24-0.5-0.47 0.08-1.11 1.02-1.5 1.25-0.93 0.54-1.94 0.5-2.99 1-0.19 0.08-0.51 0.69-0.75 0.75-0.84 0.15-1.04-0.49-1.75-0.25-0.08 0.02-0.43 0.65-0.49 0.75-0.9 1.13-0.69 1.68 0 2.99-0.58 0.14-1.13 0.27-2 0.5 0.12-0.27-0.1-0.73 0-1 0.03-0.09 0.66-0.44 0.75-0.5-0.16-0.43 0.15-0.83 0-1.25-0.06-0.14-0.64-0.5-0.75-0.74-0.51 0.21-1.07 0.16-1.5 0.25-0.11 0.99-0.38 2.73-0.49 3.74-0.78 0-0.71-0.11-1.5 0 0.13 0.35-0.13 0.88 0 1.24 0.13 0.39 1.35 0.77 1.75 1-0.01 0.04-0.1 1.39-0.25 1-0.16 0.25 0.1 0.46 0 0.74-0.06 0.14-0.62 0.52-0.75 0.75h-0.5c-0.37-0.79-0.54-1.38-1-1.99-1.12-1.49-0.92-0.61-2.74-1.25-0.08-0.03-0.43-0.72-0.5-0.75-0.43-0.15-0.83 0.15-1.25 0-0.13 0.27-0.69 0.56-0.74 0.75-0.24 0.72 0.05 1.45-0.25 2-0.5 0.86-1.69 0.52-2.5 0.99-0.97 0.56-1.48 2.75-1.74 3.99-1.99-0.93-0.77-0.93-2.74 0 0.08 0.43-0.13 0.57-0.25 1 1.03 0.74 1.06 0.81 2.24 1-0.09 0.03-0.05 0.91-0.25 0.99-0.29 0.13-0.92 0-1.25 0-0.14 0.29-0.69 0.74-0.74 1-0.24 1.01 0.44 2.04 0.5 2.74 0.03 0.5-0.28 0.74-0.25 1h-0.5c-0.52-0.18-0.98-1.6-1.5-1.74-0.8-0.24-0.88 0.27-1.49 0.25-0.64 2.15-0.81 1.98 0.74 3.24-0.5 0.45 0.11 3.25 0.25 4.24-0.37-0.37-0.86-0.64-1.24-1 0.51 0-1.37-0.21-0.75 0-0.29 0.24-0.72 0-1 0.25v0.5c-0.78 2.24 0.7 2.51 1.5 4.49-0.09 0.07 0.04 0.63 0 0.74-0.13 0.31-1.33 0.66-1.5 1-0.12 0.23 0.04 0.74 0 1-0.05 0.23-0.73 1.17-0.75 1.25-0.12 0.47 0.11 1.01 0 1.49 0.45 0.39 1.41 1.01 1.75 1.5 0.27 0.4 0.17 0.92 0.5 1.24 0.35 0.35 0.94 0.34 1.24 0.75 0.74 1.01 1.38 3.6 1.75 4.99 0.37 0.08 0.88 0.02 1.25 0.25-0.11 0.09-0.18 0.64-0.25 0.75-0.24 0.32-1.07 0.42-1.25 0.74-0.45 0.77 0.09 2.72 0 3.99 0.46 0.19 0.12 0.02 0.25 0.5 1 0.03 1.55 0.17 2.74 0-0.11 0.27 0.07 0.71 0 1-0.22 0.79-1.67 1.36-0.75 2.74 0.14 0.2 0.93 0.27 1 0.5 0.35 1.19-0.84 1.85 0.25 2.49 0.3 0.18 1.38 0.43 1.74 0.5-0.1 0.89-0.51 2.07 0 3 0.09 0.15 0.71 0.33 0.75 0.49 0.16 0.59-0.23 1.44 0 2 0.06 0.14 0.37 0.12 0.5 0.25 0.67 0.59 1.32 0.5 2 1 0.24 0.18 0.07 0.45 0.25 0.74 0.97 1.58 2.3 0.7 3.49 0-0.14 1.74-0.21 2.39-0.5 3.99 0.18 0.05 1.49 0.37 1.24 0.25 0.69-0.45 1.49-0.29 1.75-1.25 0.06-0.26-0.13-0.77 0-0.99 0.13-0.24 0.9-0.1 1-0.25 0.09 0.2-0.06 0.54 0 0.75 0.04 0.15 0.72 0.67 0.74 0.75 0.09 0.39-0.33 1.43-0.24 1.49-0.16 0.05-0.47 0.42-0.5 0.5 0.04 0.04 0 0.68 0 0.75 1.23 0.54 1.56 0.7 3.49 0.5 0 0.14-0.1 1.18 0 1.24-0.2 0.3-0.71 0.5-1 0.75 0.08 0.23 0 0.75 0 1 0.36 0.14 0.33 0.41 0.5 0.75 1.36-0.26 1.45-0.24 2.24-0.75 0.24-0.16 1.09-0.52 1.25-0.75 0.44-0.64 0.1-1.37 0.75-1.75 0.31-0.18 0.88 0.1 1.25 0l0.49-0.49c1.3-0.31 0.83 0.1 1.75 0.25-0.13 0.4 0 1.06 0 1.49-0.69 0.25-1.42 0.51-1.99 0.75 0.04 0.41 0.24 1.74 0.24 1.74 0.39 0.06 0.79 0.39 1.5 0.25 0.34-0.07 0.91-0.79 1.25-0.99 1.55-0.99 2.44-0.39 4.24-1 0.1-0.04 0.22-0.45 0.49-0.5-0.11-0.55 0.23-1.25 0-1.74h-0.24c-0.46 0-0.92-0.57-1.25-0.75 0-0.46 0.1-1.05 0-1.5 0.22-0.19 0.36-0.75 0.75-0.75h0.25c0.46 0.45 1.06 1.56 1.74 1.75 0.28 0.07 0.72-0.11 1 0-0.3 0.91-0.2 1.26-0.5 2.24 0.9 0.39 2.39 1.23 3.74 0.5 1.21-0.66 0.36-1.63 0.25-2.24-0.12-0.65 0.28-0.93 0.25-1.25 1.66-0.1 3.07-0.36 4.74-1 0.07-0.04 0.17-0.48 0.24-0.49h0.5c0.37-0.61-0.03-1.44 0.25-2.25 0.18-0.54 1.02-0.82 1.25-1.25 0.26-0.5 0.03-0.76 0.25-1.24 1.07 0.04 3.36 0.14 4.49-0.5 0.5-0.3 0.77-1.16 1.24-1.5 0.22-0.17 0.49 0.09 0.75 0 1.62-0.63 0.52-2.25 0-2.99 0.87-0.23 2.48-0.48 2.75-1.25 0.13-0.4-0.2-1.14 0-1.49h0.25c0.99-0.51 1.7-1.51 2.49-2.25 0.25 0.12 0.71-0.1 0.99 0 0.61 0.21 0.75 1.5 2.25 1 0.18-0.06 0.47-0.62 0.75-0.75-0.24-0.38-0.02-0.92-0.25-1.25-0.12-0.15-1.38-0.69-1.5-0.99-0.11-0.27 0.16-0.51 0-0.75 2.35-0.62 2.79-0.51 2.49-3.24 0.85-0.53 1.66-0.67 2.5-1.25 0.26-0.18 0.2-0.55 0.5-0.75-0.18-1.16-0.48-2.72 0.5-3.24 1.82-0.97 2.39 0.58 3.24 0.75 1.04 0.2 1.17-0.39 1.74-0.5-0.06-0.6 0.31-0.4 0.25-0.99-0.02-0.24-0.55-0.8-0.5-1.25 0.01-0.12 0.73-0.7 0.75-0.75 0.11-0.3-0.14-0.48 0-0.75-0.4-0.18-1.07-0.51-1.5-0.75 0.73-1.57 0.64-2.11 0-3.74 0.82 0.45 1.61 0.88 2.5 1.25-0.06 0.01 1.25 0.02 1.49 0 0.19-0.43 0.95-2.79 1.25-2.99 0.64-0.46 1.57-0.09 2.24-0.5 0.53-0.33 0.22-1.41 0-1.25 0.11-0.4-0.13-0.86 0-1.24 0.04-0.11 0.45-0.24 0.5-0.5 1.97 0.15 2.26 0 3.49-0.5 0.2-1.79 0.21-2.54-0.99-3.49-0.13-0.1-0.7-0.36-0.75-0.5-0.19-0.54 0.09-1.18 0-1.75 0.4-0.11 0.4 0.21 0.5-0.25 0.41 0.18 0.83-0.18 1.24 0 0.32 0.14 0.21 1.06 0.5 1.25 1.47 1 3.33 0.31 3.74-1 0.3-0.96-0.13-0.94-0.25-1.74h-0.49l0.24-2c-0.88 0.06-1.02 0.04-1.49 0-0.16-0.43 0.15-0.82 0-1.24-0.06-0.17-0.65-0.35-0.75-0.5-0.26-0.43-0.03-0.77-0.25-1.25 0.28-0.15 0.45-0.68 0.75-0.75 0.16-0.04 0.58 0.11 0.75 0 0.46-0.33 0.72-1.56 1.24-1.74 0.56-0.21 1.64 0.02 2.25 0 0.39-1.35 0.84-2.43 1.25-3.49-0.19-0.13-0.27-0.87-0.5-1-0.49-0.28-1.13-0.26-1.5-0.5-1.46-0.93 1.64-1.66 2.24-2.24 0.24-0.24 0-0.77 0.26-1-0.28-0.06-3.4-0.69-3.5-0.75-0.13-0.08-0.85-1.95-0.99-2.24 1.24-0.41 1.4-0.67 2.24-1.25-0.37-0.33-0.34-0.94-0.75-1.24-0.35-0.27-0.57-0.13-1-0.25 0.01-0.05-0.18-0.92-0.25-1.25 0.78-0.37 1.34-0.62 2-1-0.13-0.36 0.12-0.89 0-1.25-0.06-0.16-0.65-0.35-0.75-0.49-0.33-0.54-0.54-1.5-0.75-2-0.13 0.41-0.25-0.75-0.25-0.75 1.07-0.62 0.29-2.08-0.99-1.99l-0.5 0.5c-0.48 0.23-0.83 0.31-1.25 0.5-0.01 0.04-0.03 1.62 0 1.49 0.15 0.31 0.63 0.51 0.75 0.75 0.25 0.53 0.09 1.03 0.25 1.5-0.55-0.49-0.99-0.75-1.5-1.25-0.43 0.15-0.82-0.16-1.25 0-0.31 0.1-0.69 1.14-0.99 1.25-0.43 0.14-0.83-0.16-1.25 0l-0.25-0.5c-0.12 0.38-0.25-0.95-0.25-1 0.06-0.05 0.73-0.44 0.75-0.5 0.18-0.63-0.3-0.95-0.25-1.25h-0.5c-0.33 0.11-0.65 1.27-0.99 1.5-0.17 0.11-0.58-0.05-0.75 0-0.17 0.04-0.82 0.69-1 0.75-1.5 0.47-2.86 0.5-4.74 0.5-0.44 0.92-0.41 0.89-0.75 2.24-0.03 0-0.74-0.01-0.74 0-0.06-0.6-0.25-1.78-0.25-2.74 0.56-0.2 0.77-0.12 1.49-0.25-0.08-1.12-0.08-2.46-0.5-3.74 1.18 0.22 1.3 0.37 2.5 0l0.25-0.5c0.43-0.17 1.28 0 1.74 0-0.04-0.23 0.35-0.49 0.25-1-0.19-1.04-1.63-1.99-2.24-2.74-0.27 0.37 0.01 0.62-0.25 1-0.2 0.27-0.48 0.04-0.75 0.25-0.29 0.21-0.51 0.94-0.75 1.24-0.04-0.07-0.68-0.18-0.75-0.25-0.21-0.21-0.15-0.67-0.24-0.99-0.27-0.06-0.4-0.47-0.5-0.5-0.93-0.32-1.44 0.33-2 0.5l-0.25-0.25c0.09-1.5-0.08-1.69-0.25-2.75-0.19 0-0.83 0.11-0.99 0z" transform="matrix(.8 0 0 -.8 206.43 491.97)" fill="#f56600"/></g></svg>
